<svg width="512" height="512" viewBox="0 0 600 600" fill="none" xmlns="http://www.w3.org/2000/svg" role="img" aria-labelledby="title">
  <title id="title">Converto</title>
  <rect width="600" height="600" fill="white" />
  <path
    d="M248 98H417C444 98 467 107 488 124L548 174C560 184 560 199 548 208L471 254C454 264 433 252 433 233V175H247C202 175 167 211 167 256C167 282 181 307 209 326H91V256C91 168 160 98 248 98Z"
    fill="url(#blueGradient)"
  />
  <path
    d="M137 352V420H421C445 420 463 402 463 380C463 357 445 334 421 334H326L356 278H421C505 278 562 324 562 393C562 468 502 503 419 503H171C143 503 118 494 96 477L41 433C29 423 29 408 41 399L120 354C128 349 137 355 137 365V352Z"
    fill="url(#darkGradient)"
  />
  <defs>
    <linearGradient id="blueGradient" x1="91" y1="212" x2="557" y2="212" gradientUnits="userSpaceOnUse">
      <stop stop-color="#3C8BFF" />
      <stop offset="1" stop-color="#1948FF" />
    </linearGradient>
    <linearGradient id="darkGradient" x1="32" y1="390" x2="562" y2="390" gradientUnits="userSpaceOnUse">
      <stop stop-color="#0D1520" />
      <stop offset="1" stop-color="#111820" />
    </linearGradient>
  </defs>
</svg>
